{"title":"Emily Kinney - Kids [Music Video] 1080p [Sbyky]","uid":9336387,"size":81464136,"categoryP":"video","categoryS":"music_videos","magnet":"?xt=urn:btih:8ef1d728c7c789394a300bcf8b1a047736ebbd1c&amp;dn=Emily+Kinney+-+Kids+%5BMusic+Video%5D+1080p+%5BSbyky%5D&amp;tr=udp%3A%2F%2Ftracker.openbittorrent.com%3A80&amp;tr=udp%3A%2F%2Fopen.demonii.com%3A1337&amp;tr=udp%3A%2F%2Ftracker.coppersurfer.tk%3A6969&amp;tr=udp%3A%2F%2Fexodus.desync.com%3A6969","seeders":0,"leechers":0,"uploader":"Sbyky","files":1,"time":1386861633,"description":"\n\nGeneral\nComplete name                            : Emily Kinney - Kids [Music Video] 1080p [Sbyky].mp4\nFormat                                   : MPEG-4\nFormat profile                           : Base Media\nCodec ID                                 : isom\nFile size                                : 77.7 MiB\nDuration                                 : 3mn 11s\nOverall bit rate mode                    : Variable\nOverall bit rate                         : 3 401 Kbps\nEncoded date                             : UTC 2013-11-25 05:08:03\nTagged date                              : UTC 2013-11-25 05:08:03\n\nVideo\nID                                       : 1\nFormat                                   : AVC\nFormat/Info                              : Advanced Video Codec\nFormat profile                           : &lt;a class=&quot;__cf_email__&quot; href=&quot;/cdn-cgi/l/email-protection&quot; data-cfemail=&quot;3078595758707c041e00&quot;&gt;[email&amp;#160;protected]&lt;/a&gt;&lt;script data-cfhash='f9e31' type=&quot;text/javascript&quot;&gt;\n/* &lt;![CDATA[ */!function(){try{var t=&quot;currentScript&quot;in document?document.currentScript:function(){for(var t=document.getElementsByTagName(&quot;script&quot;),e=t.length;e--;)if(t[e].getAttribute(&quot;data-cfhash&quot;))return t[e]}();if(t&amp;&amp;t.previousSibling){var e,r,n,i,c=t.previousSibling,a=c.getAttribute(&quot;data-cfemail&quot;);if(a){for(e=&quot;&quot;,r=parseInt(a.substr(0,2),16),n=2;a.length-n;n+=2)i=parseInt(a.substr(n,2),16)^r,e+=String.fromCharCode(i);e=document.createTextNode(e),c.parentNode.replaceChild(e,c)}t.parentNode.removeChild(t);}}catch(u){}}()/* ]]&gt; */&lt;/script&gt;\nFormat settings, CABAC                   : Yes\nFormat settings, ReFrames                : 3 frames\nCodec ID                                 : avc1\nCodec ID/Info                            : Advanced Video Coding\nDuration                                 : 3mn 11s\nDuration_LastFrame                       : -41ms\nBit rate                                 : 3 273 Kbps\nWidth                                    : 1 920 pixels\nHeight                                   : 1 080 pixels\nDisplay aspect ratio                     : 16:9\nFrame rate mode                          : Constant\nFrame rate                               : 23.976 fps\nColor space                              : YUV\nChroma subsampling                       : 4:2:0\nBit depth                                : 8 bits\nScan type                                : Progressive\nBits/(Pixel*Frame)                       : 0.066\nStream size                              : 74.7 MiB (96%)\nEncoded date                             : UTC 2013-11-25 05:08:03\nTagged date                              : UTC 2013-11-25 05:08:03\n\nAudio\nID                                       : 2\nFormat                                   : AAC\nFormat/Info                              : Advanced Audio Codec\nFormat profile                           : LC\nCodec ID                                 : 40\nDuration                                 : 3mn 11s\nBit rate mode                            : Variable\nBit rate                                 : 126 Kbps\nChannel(s)                               : 2 channels\nChannel positions                        : Front: L R\nSampling rate                            : 44.1 KHz\nCompression mode                         : Lossy\nDelay relative to video                  : 42ms\nStream size                              : 2.87 MiB (4%)\nEncoded date                             : UTC 2013-11-25 05:07:10\nTagged date                              : UTC 2013-11-25 05:07:10\n\nShared By Sbyky\n","torrent":{"xt":"urn:btih:8ef1d728c7c789394a300bcf8b1a047736ebbd1c","amp;dn":"Emily+Kinney+-+Kids+%5BMusic+Video%5D+1080p+%5BSbyky%5D","amp;tr":["udp%3A%2F%2Ftracker.openbittorrent.com%3A80","udp%3A%2F%2Fopen.demonii.com%3A1337","udp%3A%2F%2Ftracker.coppersurfer.tk%3A6969","udp%3A%2F%2Fexodus.desync.com%3A6969"],"infoHash":"8ef1d728c7c789394a300bcf8b1a047736ebbd1c","infoHashBuffer":{"type":"Buffer","data":[142,241,215,40,199,199,137,57,74,48,11,207,139,26,4,119,54,235,189,28]},"announce":[],"urlList":[]}}